<?xml version="1.0" encoding="UTF-8"?>
<svg id="Layer_1" data-name="Layer 1" xmlns="http://www.w3.org/2000/svg" viewBox="0 0 96.99 103.82">
  <defs>
    <style>
      .cls-1 {
        stroke-width: 0px;
      }
    </style>
  </defs>
  <path class="cls-1" d="M49.39,0c-1.42,0-2.85.23-3.94.69L6.81,16.82c-2.18.91-2.17,2.36.01,3.26l38.74,15.88c2.18.9,5.7.88,7.88-.03l38.64-16.13c2.18-.91,2.17-2.36-.01-3.26L53.33.66C52.24.22,50.82,0,49.39,0ZM50.34,4.61c2.7,0,4.89,1.59,4.89,3.57,0,0,0,0,0,0,0,1.98-2.17,3.6-4.87,3.61h0c-2.69,0-4.88-1.59-4.89-3.57,0-1.98,2.17-3.6,4.87-3.61ZM50.39,23.21c2.7,0,4.89,1.59,4.89,3.57h0c0,1.98-2.17,3.6-4.87,3.61h0c-2.7,0-4.88-1.59-4.89-3.58h0c0-1.98,2.17-3.6,4.87-3.61Z"/>
  <path class="cls-1" d="M4.62,21.49c-1.32.06-2.23,1.1-2.21,2.76l.37,43.9c.02,2.21,1.68,4.66,3.72,5.49l39.25,16.03c2.04.83,3.67-.27,3.65-2.48l-.37-43.9c-.02-2.21-1.68-4.66-3.72-5.49L6.05,21.77c-.51-.21-1-.3-1.44-.28ZM11.19,33.62c1.71.02,3.36,1.64,3.95,3.89.69,2.6-.28,5.12-2.16,5.63-1.88.51-3.97-1.19-4.65-3.8,0,0,0,0,0,0-.69-2.6.28-5.12,2.16-5.63.23-.06.46-.09.7-.09ZM24.08,53.22c1.71.02,3.36,1.64,3.95,3.88.69,2.6-.28,5.12-2.16,5.63,0,0,0,0,0,0-1.88.5-3.96-1.19-4.65-3.8-.69-2.6.28-5.12,2.16-5.63.23-.06.46-.09.7-.09h0ZM37.31,71.29c1.71.02,3.36,1.64,3.95,3.88.69,2.6-.28,5.12-2.16,5.63-1.88.51-3.97-1.19-4.65-3.8,0,0,0,0,0,0-.69-2.6.28-5.12,2.16-5.63.23-.06.46-.09.7-.09h0Z"/>
  <path class="cls-1" d="M94.18,20.83c-.47-.01-.99.09-1.54.33l-38.33,16.55c-2.18.94-3.92,3.62-3.9,6.01l.37,43.3c.02,2.39,1.8,3.55,3.98,2.61l38.33-16.55c2.18-.94,3.92-3.62,3.9-6.01l-.37-43.3c-.02-1.79-1.02-2.89-2.44-2.94ZM89.16,32.59c.2,0,.4.04.6.09,1.88.52,2.85,3.05,2.16,5.65-.69,2.6-2.77,4.27-4.65,3.75,0,0,0,0,0,0-1.88-.52-2.85-3.05-2.16-5.65.61-2.29,2.32-3.91,4.05-3.85ZM60.72,42.68c.2,0,.4.04.6.09,1.88.52,2.85,3.05,2.16,5.65-.69,2.6-2.77,4.27-4.65,3.75,0,0,0,0,0,0-1.88-.52-2.85-3.05-2.16-5.65.61-2.29,2.32-3.91,4.05-3.84h0ZM89.27,59.87c.2,0,.4.04.6.09,1.88.52,2.85,3.05,2.16,5.65-.69,2.6-2.77,4.27-4.65,3.75,0,0,0,0,0,0-1.88-.52-2.85-3.05-2.16-5.65.61-2.29,2.32-3.91,4.05-3.84h0ZM60.83,70.65c.2,0,.4.04.6.09,1.88.52,2.85,3.05,2.16,5.65-.69,2.6-2.77,4.27-4.65,3.75,0,0,0,0,0,0-1.88-.52-2.85-3.05-2.16-5.65.61-2.29,2.32-3.91,4.05-3.84h0Z"/>
</svg>